# xmcd CD database file
#
# Track frame offsets:
#	150
#	14165
#	31881
#	46771
#	64137
#	83810
#	103422
#	115445
#	133226
#	144808
#	157430
#	172975
#	183779
#	216808
#	235118
#	252895
#	275778
#	310799
#	334951
#
# Disc length: 4757 seconds
#
# Revision: 0
# Processed by: cddbd v1.5.2PL0 Copyright (c) Steve Scherf et al.
# Submitted via: CDex 1.83
#
DISCID=1a129313
DTITLE=Ray Bryant - Four Classic Albums
DYEAR=1956
DGENRE=Jazz
TTITLE0=Cubano Chant
TTITLE1=Off Shore
TTITLE2=Well You Needn't
TTITLE3=Cry Me A River
TTITLE4=In A Mellow Tone
TTITLE5=You're My Thrill
TTITLE6=Night In Tunisia
TTITLE7=Goodbye
TTITLE8=Philadelphia Bound
TTITLE9=Pawn Ticket
TTITLE10=The Breeze And I
TTITLE11=It's A Pity To Say Goodnight
TTITLE12=Blues (No. 3)
TTITLE13=Joy (Blues No. 2)
TTITLE14=Lover Man (Oh, Where Can You Be
TTITLE15=Me And The Blues (Blues No. 1)
TTITLE16=My Blues (Blues No. 5)
TTITLE17=Rockin' Chair
TTITLE18=Stocking Feet
EXTD=YEAR: 1956
EXTT0=
EXTT1=
EXTT2=
EXTT3=
EXTT4=
EXTT5=
EXTT6=
EXTT7=
EXTT8=
EXTT9=
EXTT10=
EXTT11=
EXTT12=
EXTT13=
EXTT14=
EXTT15=
EXTT16=
EXTT17=
EXTT18=
PLAYORDER=
